<svg width="679" height="548" viewBox="0 0 679 548" fill="none" xmlns="http://www.w3.org/2000/svg">
  <path d="m724.447 391.036 31.372-28.806c16.756-15.401 11.907-42.994-9.126-51.693l-39.359-16.328 19.679-37.789c10.482-20.179-3.565-44.421-26.238-45.419l-42.495-1.925 5.49-42.21c2.923-22.531-18.467-40.571-40.214-33.726l-40.57 12.763-9.269-41.568c-4.92-22.246-31.23-31.8-49.341-17.968l-33.796 25.882-22.888-35.864c-12.264-19.18-40.285-19.18-52.477 0l-22.888 35.864-33.796-25.882c-18.039-13.832-44.421-4.207-49.34 17.968l-9.198 41.568-40.642-12.763c-21.675-6.845-43.137 11.195-40.213 33.726l5.49 42.21-42.496 1.925c-22.745.998-36.72 25.24-26.238 45.419l19.679 37.789-39.358 16.328c-21.034 8.699-25.883 36.292-9.127 51.693l31.372 28.806-31.372 28.734c-16.756 15.401-11.907 42.994 9.127 51.693l39.358 16.328-19.679 37.789c-10.482 20.179 3.493 44.421 26.238 45.419l42.496 1.925-5.49 42.21c-2.924 22.531 18.538 40.57 40.213 33.725l40.642-12.762 9.269 41.568c4.92 22.246 31.23 31.8 49.34 17.968l33.797-25.882 22.887 35.864c12.264 19.18 40.285 19.18 52.478 0l22.887-35.864 33.797 25.882c18.039 13.832 44.349 4.207 49.34-17.968l9.269-41.568 40.57 12.762c21.747 6.845 43.209-11.194 40.214-33.725l-5.49-42.21 42.495-1.925c22.745-.998 36.72-25.24 26.239-45.419l-19.679-37.789 39.358-16.328c21.034-8.699 25.882-36.292 9.127-51.693l-31.444-28.734Z" fill="#FD7E14"/>
  <path d="m259.411 359.515 13.398-12.301c7.155-6.577 5.085-18.361-3.898-22.076l-16.808-6.973 8.404-16.138c4.476-8.617-1.522-18.97-11.205-19.396l-18.148-.822 2.345-18.026c1.248-9.622-7.887-17.326-17.174-14.402L199 254.831l-3.958-17.752c-2.101-9.5-13.337-13.58-21.071-7.673l-14.433 11.053-9.774-15.316c-5.238-8.191-17.204-8.191-22.411 0l-9.774 15.316-14.433-11.053c-7.704-5.907-18.97-1.797-21.07 7.673l-3.929 17.752-17.356-5.45c-9.256-2.924-18.421 4.78-17.173 14.402l2.345 18.026-18.148.822c-9.713.426-15.681 10.779-11.205 19.396l8.404 16.138-16.808 6.973c-8.983 3.715-11.053 15.499-3.898 22.076l13.398 12.301-13.398 12.271c-7.155 6.577-5.085 18.361 3.898 22.076l16.808 6.973-8.404 16.138c-4.476 8.617 1.492 18.97 11.205 19.396l18.148.822-2.345 18.026c-1.248 9.622 7.917 17.325 17.173 14.402l17.356-5.45 3.959 17.752c2.1 9.5 13.337 13.58 21.071 7.673l14.432-11.053 9.775 15.316c5.237 8.191 17.203 8.191 22.41 0l9.774-15.316 14.433 11.053c7.704 5.907 18.94 1.796 21.071-7.673l3.958-17.752 17.326 5.45c9.287 2.923 18.452-4.78 17.173-14.402l-2.344-18.026 18.147-.822c9.714-.426 15.682-10.779 11.206-19.396l-8.404-16.138 16.808-6.973c8.982-3.715 11.053-15.499 3.897-22.076l-13.428-12.271Z" fill="#479F76"/>
  <path d="m587.953 79.6 7.589-6.969c4.054-3.726 2.881-10.401-2.208-12.505l-9.521-3.95 4.761-9.142c2.535-4.882-.863-10.746-6.348-10.988l-10.28-.466 1.328-10.211c.707-5.45-4.468-9.815-9.729-8.159l-9.814 3.088-2.243-10.057c-1.19-5.381-7.555-7.693-11.936-4.346l-8.176 6.261-5.537-8.676c-2.967-4.64-9.746-4.64-12.695 0l-5.537 8.676-8.176-6.261c-4.364-3.347-10.746-1.018-11.937 4.346l-2.225 10.057-9.832-3.088c-5.243-1.656-10.435 2.708-9.728 8.159l1.328 10.211-10.28.466c-5.503.242-8.883 6.106-6.348 10.988l4.761 9.142-9.522 3.95c-5.088 2.104-6.261 8.78-2.207 12.505l7.589 6.969-7.589 6.951c-4.054 3.726-2.881 10.401 2.207 12.506l9.522 3.95-4.761 9.142c-2.535 4.881.845 10.746 6.348 10.987l10.28.466-1.328 10.211c-.707 5.451 4.485 9.815 9.728 8.159l9.832-3.087 2.243 10.056c1.19 5.381 7.555 7.693 11.936 4.346l8.176-6.261 5.537 8.676c2.967 4.64 9.746 4.64 12.695 0l5.537-8.676 8.176 6.261c4.364 3.347 10.729 1.018 11.936-4.346l2.243-10.056 9.815 3.087c5.26 1.656 10.452-2.708 9.728-8.159l-1.328-10.211 10.28-.466c5.503-.241 8.883-6.106 6.348-10.987l-4.761-9.142 9.522-3.95c5.088-2.105 6.261-8.78 2.208-12.506l-7.607-6.951Z" fill="#7C6C77"/>
</svg>
